<svg xmlns="http://www.w3.org/2000/svg" width="337" height="377" stroke="#000" stroke-linecap="round" stroke-linejoin="round" fill="#fff" fill-rule="evenodd"><defs><linearGradient id="A" x1="0%" y1="0%" x2="100%" y2="100%"><stop offset="47%" stop-color="#fff"/><stop offset="100%" stop-color="#c7c7c7"/></linearGradient></defs><path d="M271.2362 14.3343c7.5591-17.0078 32.126 9.4489 1.8898 11.3386-51.267.079-149.1984-1.6338-200.315 3.7591S40.0696 58.6419 46.3543 63.4478c0-11.3386-3.3007-9.3991 0-15.1181s18.8976-7.5591 22.6772 3.7795c3.7795 15.1181-3.7795 37.7953-15.1181 75.5905C34.0749 189.643 7.985 291.4955 1 339.3533c0 30.2362 26.4567 22.6772 37.7953 18.8976 15.1182-15.1181 6.491 1.9185-15.1182-3.7795-11.3386-11.3386 98.2678-5.6488 109.6064-3.7591 57.5558 7.82 76.3307 23.6923 147.4015 24.567 28.3465 0 51.0237-1.8897 54.8032-20.7874 0-15.1181-11.3386-24.567-34.0158-15.1182 34.0157-7.559 22.6772 13.2284 22.6772 13.2284-5.6693 5.6692-17.0079 7.559-22.6772 1.8898-5.6693-7.5591-9.4488-18.8977-1.8897-71.8315 7.707-67.8356 11.3386-255.0977 5.6693-268.326-3.7796-9.4488-18.8977-24.5669-34.0158-.0001z" stroke-width="2" stroke="#838383" fill="url(#A)"/></svg>