<svg xmlns="http://www.w3.org/2000/svg" width="362" height="203" stroke="#000" stroke-linecap="round" stroke-linejoin="round" fill="#fff" fill-rule="evenodd"><defs><linearGradient id="A" x1="0%" y1="0%" x2="100%" y2="100%"><stop offset="0%" stop-color="gray"/><stop offset="100%"/></linearGradient><linearGradient id="B" x1="0%" y1="0%" x2="100%" y2="100%"><stop offset="0%" stop-color="#d7d7d7"/><stop offset="100%" stop-color="#626262"/></linearGradient><linearGradient id="C" x1="0%" y1="0%" x2="100%" y2="100%"><stop offset="0%" stop-color="#acacac"/><stop offset="100%" stop-color="#404040"/></linearGradient></defs><g stroke-width="2" stroke="url(#A)"><g fill="url(#B)"><path d="M 204.69920000000002 105.0115 C 176.2236 110.3152 147.748 115.6188 133.5102 131.5298 C 119.2723 147.4408 119.2723 173.9592 133.5102 184.56650000000002 C 147.748 195.1738 176.2236 189.8702 204.69920000000002 184.56650000000002"/><path d="M 0 34.1904 C 27.5997 37.0393 55.1994 39.8889 64.7993 34.1904 C 74.3993 28.4919 65.9991 14.2459 57.5993 0" transform="matrix(.93969262 .34202014 -.34202014 .93969262 264.14891612 152.15591484)"/><path d="M 1e-13 1e-13 C 19.3665 8.0324 38.733 16.0648 47.5359 16.0648 C 56.3389 16.0648 54.5783 8.0324 52.8177 0" transform="translate(173.0085 179.9808)"/><path d="M 223.1614 126.4314 C 199.6649 147.12369999999999 176.1685 167.816 196.7573 178.5109 C 217.34619999999998 189.2058 282.0203 189.9033 302.3734 178.5109 C 322.7265 167.11849999999998 298.75849999999997 143.6362 289.1714 139.4513 C 279.5842 135.2663 284.3778 150.37869999999998 289.1714 165.4911"/><path d="M 1e-13 1e-13 C 39.6132 0.8926 79.2267 1.7849 95.0717 10.7098 C 110.917 19.6347 102.9945 36.5922 95.0717 53.5494" transform="translate(199.4175 33.8225)"/><path d="M 72.655 99.6565 C 73.1245 56.3409 73.594 13.0253 104.3456 3.2674 C 135.0972 -6.4905 196.131 17.3093 220.5445 35.3971 C 244.958 53.4849 232.75130000000001 65.8608 220.5445 78.2367"/><path d="M 62.0916 160.13629999999998 C 65.6128 169.06119999999999 69.134 177.9862 83.2187 181.5561 C 97.3034 185.12609999999998 121.9516 183.34109999999998 130.75459999999998 176.20119999999997 C 139.5575 169.06119999999999 132.5152 156.5664 125.4728 144.0715"/><path d="M 173.0086 84.1421 C 117.1392 65.5783 61.269800000000004 47.0145 35.6826 62.7223 C 10.0953 78.4301 14.7902 128.40959999999998 35.6826 148.4014 C 56.5749 168.3932 93.6647 158.3973 130.7544 148.4014"/></g><path d="M 273.3622 89.10239999999999 C 311.1562 86.2465 348.9502 83.39049999999999 357.8705 99.8123 C 366.79089999999997 116.23419999999999 346.8375 151.9338 326.1799 164.0717 C 305.5223 176.2095 284.1605 164.7857 262.7987 153.3618" fill="url(#C)"/><g fill="url(#B)"><path d="M 257.5169 76.6616 C 283.9257 73.9841 310.33450000000005 71.3066 320.89820000000003 76.6616 C 331.4617 82.0164 326.1798 95.4037 320.89820000000003 108.7911"/><path d="M 130.7545 138.8322 C 163.774 89.38550000000001 196.7935 39.938700000000004 232.4357 46.7363 C 268.078 53.5338 306.3429 116.5757 288.9253 138.8322 C 271.5077 161.08870000000002 198.40750000000003 142.5599 175.9462 129.6226 C 153.4848 116.6853 181.6624 109.3396 209.8399 101.9938"/><path d="M 37.7376 141.43759999999997 C 22.9394 138.26149999999998 8.141200000000001 135.0855 3.0479 141.43759999999997 C -2.0454 147.78959999999998 2.5661 163.66969999999998 14.6111 172.1026 C 26.6561 180.53549999999998 46.1347 181.5211 55.0824 178.23559999999998 C 64.0301 174.95 62.4471 167.39329999999998 60.864 159.83659999999998"/><path d="M 237.1269 176.246 C 230.336 184.6609 223.5452 193.07580000000002 226.5633 197.6658 C 229.5815 202.2557 242.4086 203.0207 247.6904 197.6658 C 252.9722 192.3108 250.70850000000002 180.836 247.6904 176.246 C 244.6722 171.6561 240.8995 173.951 237.1269 176.246 Z"/><path d="M 16.7341 7.8206 C 5.1145 34.9119 -6.5051 62.0032 4.2846 58.6167 C 15.0742 55.2303 48.273 21.3662 54.0828 7.8206 C 59.8925 -5.7251 38.3133 1.0478 16.7341 7.8206 Z" transform="matrix(-1 0 0 -1 215.2628 201.4007)"/><path d="M 142.5902 169.271 C 126.39280000000001 172.12699999999998 110.1953 174.98289999999997 116.18130000000001 179.9809 C 122.16730000000001 184.97879999999998 150.3368 192.1188 158.4355 190.6908 C 166.5342 189.2628 154.56220000000002 179.2669 142.5902 169.271 Z"/><path d="M 314.8645 158.2038 C 308.63950000000006 170.7943 302.4146 183.38479999999998 309.58270000000005 190.33339999999998 C 316.7508 197.28209999999999 337.312 198.589 341.2733 190.33339999999998 C 345.2346 182.0779 332.59610000000004 164.26 325.42800000000005 158.2038 C 318.2599 152.14759999999998 316.5622 157.85309999999998 314.8645 163.5587"/><path d="M 83.21860000000001 174.1871 C 66.9038 167.7612 50.589 161.3353 46.2462 168.8322 C 41.9034 176.32909999999998 49.5326 197.7489 56.8097 200.96189999999999 C 64.0868 204.1748 71.0118 189.18099999999998 77.9368 174.1871"/><path d="M 94.5193 167.4491 C 87.7284 175.0991 80.93759999999999 182.749 83.9557 188.8689 C 86.9739 194.9889 99.80099999999999 199.5788 105.08279999999999 194.2239 C 110.3646 188.8689 108.1009 173.5691 105.08279999999999 167.4491 C 102.0646 161.3292 98.2919 164.3892 94.5193 167.4491 Z"/></g></g></svg>