<svg xmlns="http://www.w3.org/2000/svg" width="211" height="255" stroke="#000" stroke-linecap="round" stroke-linejoin="round" fill="#fff" fill-rule="evenodd" stroke-width="2"><g fill="red" stroke="red"><ellipse cx="136.3644" cy="108.7136" rx="2.5mm" ry="2.375mm"/><ellipse cx="74.0022" cy="106.8237" rx="2.5mm" ry="2.375mm"/></g><g stroke="#a2a2a2"><g fill="#e0e0e0"><path d="M126.1463 125.249c25.3789 55.4331 50.7578 110.8661 48.8578 124.7244s-15.8109-17.6378-33.5897-45.3543c-15.2681-30.2362-33.5897-56.6929-45.8042-79.3701"/><path d="M87.4853 125.249c-24.1326 55.6071-48.2652 111.2143-46.4585 125.116s15.0345-17.6931 31.9402-45.4967c14.5183-30.3311 31.9402-56.8709 43.5549-79.6193"/></g><g fill="red"><path d="M98.5782 95.2878c.044-25.0337.0879-50.0674-4.882-66.277S78.7422 5.4159 60.3943 1.2191 15.3347-3.9857 3.9518 12.8625s-7.4371 51.5524 7.0651 69.3946 39.5606 18.8222 64.6191 19.8022m37.1463-7.3966c-.126-24.9167-.2518-49.8333 4.6536-65.9508s14.8424-23.4355 33.1344-27.5525 44.9392-5.0328 56.3512 11.7738 7.589 51.3356-6.8216 69.0468-39.4082 18.6045-64.4059 19.4977"/><path d="M98.2591 72.3356c5.6475 26.4217 11.2949 52.8434 1.915 65.4554s-33.7873 11.4145-44.0437 0-6.3619-33.0459 1.9149-40.9096 20.9359-1.9598 24.8943 4.0909-.784 12.2485-3.8299 14.3184-4.3954.0123-5.7448-2.0455"/></g><path d="M86.4227 85.7503c.7939-17.6496 1.5875-35.2992-1.533-46.5754s-10.1556-16.179-23.3692-18.5792-32.606-2.2981-41.3955 9.9259-6.9766 36.5699 3.0255 48.707S51.3436 91.294 69.5346 91.2223m53.2795-5.8717c-.8498-17.5697-1.6996-35.1392 1.3769-46.3524s10.0793-16.07 23.2547-18.4157 32.5236-2.1805 41.3331 10.0151 7.0804 36.4216-2.859 48.4691-28.0889 11.9166-46.2383 11.7856"/><path d="M86.2856 86.0431c-6.1417-3.5787-12.2835-7.1575-15.1181-6.135s-2.3622 6.6463-1.8898 12.27m53.8583-6.6139c5.6812-3.3071 11.3624-6.6142 13.9844-5.6693s2.185 6.1417 1.7481 11.3385" fill="red"/><circle cx="92.8998" cy="111.0757" r="4.7244"/><circle cx="117.4667" cy="111.0757" fill="none" r="4.7244"/><path fill="red" d="M113.001 72.3355c-5.6056 27.0921-11.2112 54.1841-1.9007 67.1162s33.5372 11.704 43.7176 0 6.3147-33.8844-1.9008-41.9476-20.7808-2.0096-24.7099 4.1947.7782 12.5592 3.8016 14.6817 4.3627.0125 5.7022-2.0974"/><circle cx="117.4667" cy="111.0757" r="4.7244"/></g></svg>